<?xml version="1.0" encoding="UTF-8" standalone="no"?>
<!DOCTYPE svg PUBLIC "-//W3C//DTD SVG 1.1//EN" "http://www.w3.org/Graphics/SVG/1.1/DTD/svg11.dtd">
<svg width="100%" height="100%" viewBox="0 0 423 752" version="1.1" xmlns="http://www.w3.org/2000/svg" xmlns:xlink="http://www.w3.org/1999/xlink" xml:space="preserve" xmlns:serif="http://www.serif.com/" style="fill-rule:evenodd;clip-rule:evenodd;stroke-linecap:round;stroke-linejoin:round;stroke-miterlimit:29.7497;">
    <g id="Layer_2">
        <path d="M302.98,746.62L120.517,746.62" style="fill:none;fill-rule:nonzero;stroke:black;stroke-width:15px;"/>
        <path d="M119.328,746.598C119.117,746.573 118.913,746.53 118.71,746.468" style="fill:none;fill-rule:nonzero;stroke:black;stroke-width:15px;"/>
        <path d="M117.894,746.089C116.811,745.397 116.373,744.622 116.337,743.336" style="fill:none;fill-rule:nonzero;stroke:black;stroke-width:15px;"/>
        <path d="M116.338,743.337L115.358,706.173" style="fill:none;fill-rule:nonzero;stroke:black;stroke-width:15px;"/>
        <path d="M114.989,660.718C115.114,659.089 115.187,657.46 115.204,655.824" style="fill:none;fill-rule:nonzero;stroke:black;stroke-width:15px;"/>
        <path d="M304.388,746.565C304.31,746.594 304.239,746.565 304.165,746.565" style="fill:none;fill-rule:nonzero;stroke:black;stroke-width:15px;"/>
        <path d="M305.601,746.088C305.518,746.149 305.446,746.088 305.369,746.088" style="fill:none;fill-rule:nonzero;stroke:black;stroke-width:15px;"/>
        <path d="M304.764,746.391C304.53,746.391 304.294,746.391 304.058,746.39" style="fill:none;fill-rule:nonzero;stroke:black;stroke-width:15px;"/>
        <path d="M305.336,746.092C305.155,746.211 304.966,746.31 304.765,746.391" style="fill:none;fill-rule:nonzero;stroke:black;stroke-width:15px;"/>
        <path d="M119.983,746.565L119.332,746.565" style="fill:none;fill-rule:nonzero;stroke:black;stroke-width:15px;"/>
        <path d="M119.437,746.39C119.203,746.391 118.966,746.391 118.731,746.391" style="fill:none;fill-rule:nonzero;stroke:black;stroke-width:15px;"/>
        <path d="M118.732,746.391C118.531,746.31 118.341,746.211 118.16,746.091" style="fill:none;fill-rule:nonzero;stroke:black;stroke-width:15px;"/>
        <path d="M118.127,746.088C118.05,746.088 117.977,746.128 117.895,746.088" style="fill:none;fill-rule:nonzero;stroke:black;stroke-width:15px;"/>
        <path d="M331.005,369.371C326.218,363.428 321.426,357.488 316.635,351.545" style="fill:none;fill-rule:nonzero;stroke:black;stroke-width:15px;"/>
        <path d="M90.834,371.426C96.161,364.786 101.519,358.173 106.861,351.545" style="fill:none;fill-rule:nonzero;stroke:black;stroke-width:15px;"/>
        <path d="M355.083,295.146L68.413,295.146" style="fill:none;fill-rule:nonzero;stroke:black;stroke-width:15px;"/>
        <path d="M347.275,323.365L76.222,323.365" style="fill:none;fill-rule:nonzero;stroke:black;stroke-width:15px;"/>
        <path d="M58.566,258.296C52.45,238.526 46.023,218.866 39.28,199.301" style="fill:none;fill-rule:nonzero;stroke:black;stroke-width:15px;"/>
        <path d="M364.93,258.296C371.046,238.526 377.474,218.866 384.216,199.301" style="fill:none;fill-rule:nonzero;stroke:black;stroke-width:15px;"/>
        <path d="M361.706,260.672L61.79,260.672" style="fill:none;fill-rule:nonzero;stroke:black;stroke-width:15px;"/>
        <path d="M391.627,63.225L392.998,53.108" style="fill:none;fill-rule:nonzero;stroke:black;stroke-width:15px;"/>
        <path d="M31.869,63.225L30.497,53.108" style="fill:none;fill-rule:nonzero;stroke:black;stroke-width:15px;"/>
        <path d="M30.374,51.294C30.374,51.902 30.415,52.504 30.497,53.106" style="fill:none;fill-rule:nonzero;stroke:black;stroke-width:15px;"/>
        <path d="M393.122,51.294C393.122,51.902 393.082,52.504 392.998,53.106" style="fill:none;fill-rule:nonzero;stroke:black;stroke-width:15px;"/>
        <path d="M243.085,183.893C243.569,184.444 244.101,184.773 244.806,184.96" style="fill:none;fill-rule:nonzero;stroke:black;stroke-width:15px;"/>
        <path d="M43.564,188.16L43.494,188.16" style="fill:none;fill-rule:nonzero;stroke:black;stroke-width:15px;"/>
        <path d="M39.404,194.109C39.505,191.541 40.981,189.314 43.304,188.217" style="fill:none;fill-rule:nonzero;stroke:black;stroke-width:15px;"/>
        <path d="M380.034,188.146C382.442,189.209 383.988,191.479 384.091,194.11" style="fill:none;fill-rule:nonzero;stroke:black;stroke-width:15px;"/>
        <path d="M178.715,184.953C179.409,184.763 179.933,184.435 180.412,183.891" style="fill:none;fill-rule:nonzero;stroke:black;stroke-width:15px;"/>
        <path d="M339.839,351.545L211.748,351.545" style="fill:none;fill-rule:nonzero;stroke:black;stroke-width:15px;"/>
        <path d="M211.748,351.545L83.658,351.545" style="fill:none;fill-rule:nonzero;stroke:black;stroke-width:15px;"/>
        <path d="M387.426,63.225L391.063,67.388" style="fill:none;fill-rule:nonzero;stroke:black;stroke-width:15px;"/>
        <path d="M47.442,124.553C42.746,122.833 39.386,118.656 38.715,113.7" style="fill:none;fill-rule:nonzero;stroke:black;stroke-width:15px;"/>
        <path d="M238.514,150.176L238.514,134.985" style="fill:none;fill-rule:nonzero;stroke:black;stroke-width:15px;"/>
        <path d="M238.514,134.986C238.544,132.43 241.803,126.029 244.677,125.404L371.484,125.375C378.207,125.341 383.878,120.361 384.78,113.7" style="fill:none;fill-rule:nonzero;stroke:black;stroke-width:15px;"/>
        <path d="M115.278,703.794L114.997,671.662" style="fill:none;fill-rule:nonzero;stroke:black;stroke-width:15px;"/>
        <path d="M114.993,660.718L115.367,703.794" style="fill:none;fill-rule:nonzero;stroke:black;stroke-width:15px;"/>
        <path d="M303.783,746.619C303.783,746.86 303.542,746.62 303.42,746.62" style="fill:none;fill-rule:nonzero;stroke:black;stroke-width:15px;"/>
        <path d="M307.154,743.337C307.478,730.949 307.803,718.56 308.128,706.172" style="fill:none;fill-rule:nonzero;stroke:black;stroke-width:15px;"/>
        <path d="M303.783,746.619C303.912,746.619 304.04,746.612 304.168,746.596" style="fill:none;fill-rule:nonzero;stroke:black;stroke-width:15px;"/>
        <path d="M304.385,746.564C304.521,746.539 304.654,746.507 304.785,746.466" style="fill:none;fill-rule:nonzero;stroke:black;stroke-width:15px;"/>
        <path d="M305.602,746.086C306.681,745.394 307.119,744.62 307.154,743.336" style="fill:none;fill-rule:nonzero;stroke:black;stroke-width:15px;"/>
        <path d="M115.358,706.172C115.351,705.691 115.546,705.488 116.028,705.481" style="fill:none;fill-rule:nonzero;stroke:black;stroke-width:15px;"/>
        <path d="M308.129,706.172C308.137,705.691 307.941,705.488 307.46,705.481L306.374,705.481" style="fill:none;fill-rule:nonzero;stroke:black;stroke-width:15px;"/>
        <path d="M116.983,703.795C116.998,704.357 117.011,704.918 117.027,705.481" style="fill:none;fill-rule:nonzero;stroke:black;stroke-width:15px;"/>
        <path d="M331.005,369.371C331.574,370.076 332.144,370.779 332.71,371.485" style="fill:none;fill-rule:nonzero;stroke:black;stroke-width:15px;"/>
        <path d="M332.71,371.485C334.79,374.084 334.182,376.431 333.606,379.224" style="fill:none;fill-rule:nonzero;stroke:black;stroke-width:15px;"/>
        <path d="M89.888,379.224C89.313,376.431 88.706,374.084 90.787,371.486" style="fill:none;fill-rule:nonzero;stroke:black;stroke-width:15px;"/>
        <path d="M355.083,295.146C357.005,295.146 356.893,293.001 356.613,291.637C356.305,290.14 355.694,288.855 354.883,287.582" style="fill:none;fill-rule:nonzero;stroke:black;stroke-width:15px;"/>
        <path d="M68.613,287.582C67.801,288.854 67.191,290.141 66.883,291.638C66.603,293.002 66.491,295.145 68.413,295.145" style="fill:none;fill-rule:nonzero;stroke:black;stroke-width:15px;"/>
        <path d="M91.345,260.672C82.451,268.639 75.03,277.421 68.656,287.518" style="fill:none;fill-rule:nonzero;stroke:black;stroke-width:15px;"/>
        <path d="M354.841,287.517C348.468,277.422 341.044,268.64 332.151,260.672" style="fill:none;fill-rule:nonzero;stroke:black;stroke-width:15px;"/>
        <path d="M76.257,315.804C75.493,317.09 74.925,318.385 74.659,319.876C74.42,321.211 74.334,323.364 76.221,323.366" style="fill:none;fill-rule:nonzero;stroke:black;stroke-width:15px;"/>
        <path d="M347.275,323.365C349.163,323.365 349.077,321.211 348.836,319.874C348.571,318.384 348.002,317.089 347.239,315.803" style="fill:none;fill-rule:nonzero;stroke:black;stroke-width:15px;"/>
        <path d="M347.204,315.744C342.888,308.313 337.932,301.52 332.17,295.146" style="fill:none;fill-rule:nonzero;stroke:black;stroke-width:15px;"/>
        <path d="M91.325,295.146C85.564,301.52 80.607,308.313 76.293,315.744" style="fill:none;fill-rule:nonzero;stroke:black;stroke-width:15px;"/>
        <path d="M212.676,210.628C212.328,209.811 211.169,209.811 210.819,210.628" style="fill:none;fill-rule:nonzero;stroke:black;stroke-width:15px;"/>
        <path d="M225.461,244.616C226.3,244.963 227.137,244.115 226.776,243.279" style="fill:none;fill-rule:nonzero;stroke:black;stroke-width:15px;"/>
        <path d="M211.748,238.936L225.46,244.615" style="fill:none;fill-rule:nonzero;stroke:black;stroke-width:15px;"/>
        <path d="M198.036,244.616L211.747,238.936" style="fill:none;fill-rule:nonzero;stroke:black;stroke-width:15px;"/>
        <path d="M196.719,243.28C196.36,244.114 197.195,244.964 198.035,244.616" style="fill:none;fill-rule:nonzero;stroke:black;stroke-width:15px;"/>
        <path d="M210.819,210.628L196.719,243.28" style="fill:none;fill-rule:nonzero;stroke:black;stroke-width:15px;"/>
        <path d="M226.777,243.28L212.676,210.628" style="fill:none;fill-rule:nonzero;stroke:black;stroke-width:15px;"/>
        <path d="M61.79,260.673C60.31,260.673 59.004,259.709 58.567,258.296" style="fill:none;fill-rule:nonzero;stroke:black;stroke-width:15px;"/>
        <path d="M361.706,260.673C363.185,260.673 364.492,259.709 364.929,258.296" style="fill:none;fill-rule:nonzero;stroke:black;stroke-width:15px;"/>
        <path d="M391.627,63.225L31.868,63.225" style="fill:none;fill-rule:nonzero;stroke:black;stroke-width:15px;"/>
        <path d="M38.536,38.902C33.584,41.031 30.374,45.904 30.374,51.294" style="fill:none;fill-rule:nonzero;stroke:black;stroke-width:15px;"/>
        <path d="M393.122,51.294C393.122,45.904 389.912,41.03 384.96,38.902" style="fill:none;fill-rule:nonzero;stroke:black;stroke-width:15px;"/>
        <path d="M38.755,38.808C83.839,19.451 129.04,8.324 177.959,4.543" style="fill:none;fill-rule:nonzero;stroke:black;stroke-width:15px;"/>
        <path d="M245.537,4.544C294.485,8.327 339.712,19.465 384.819,38.842" style="fill:none;fill-rule:nonzero;stroke:black;stroke-width:15px;"/>
        <path d="M245.471,4.544L245.333,4.544" style="fill:none;fill-rule:nonzero;stroke:black;stroke-width:15px;"/>
        <path d="M245.272,4.544L178.027,4.544" style="fill:none;fill-rule:nonzero;stroke:black;stroke-width:15px;"/>
        <path d="M184.982,150.176L184.982,175.141" style="fill:none;fill-rule:nonzero;stroke:black;stroke-width:15px;"/>
        <path d="M238.514,175.141L238.514,150.176" style="fill:none;fill-rule:nonzero;stroke:black;stroke-width:15px;"/>
        <path d="M238.514,175.141C238.514,178.489 241.218,181.71 243.082,183.894" style="fill:none;fill-rule:nonzero;stroke:black;stroke-width:15px;"/>
        <path d="M43.538,188.109C49.935,185.38 60.588,184.986 67.187,185.018L178.715,184.953" style="fill:none;fill-rule:nonzero;stroke:black;stroke-width:15px;"/>
        <path d="M244.806,184.96L356.308,185.018C362.904,184.986 373.452,185.38 379.849,188.063" style="fill:none;fill-rule:nonzero;stroke:black;stroke-width:15px;"/>
        <path d="M43.303,188.214C43.365,188.188 43.428,188.183 43.494,188.174" style="fill:none;fill-rule:nonzero;stroke:black;stroke-width:15px;"/>
        <path d="M39.397,194.109L39.213,199.298" style="fill:none;fill-rule:nonzero;stroke:black;stroke-width:15px;"/>
        <path d="M384.283,199.298L384.099,194.11" style="fill:none;fill-rule:nonzero;stroke:black;stroke-width:15px;"/>
        <path d="M180.414,183.894C182.278,181.709 184.982,178.488 184.982,175.141" style="fill:none;fill-rule:nonzero;stroke:black;stroke-width:15px;"/>
        <path d="M97.279,323.365C91.942,329.786 87.386,336.575 83.469,343.947" style="fill:none;fill-rule:nonzero;stroke:black;stroke-width:15px;"/>
        <path d="M340.048,343.997C336.13,336.604 331.567,329.798 326.218,323.366" style="fill:none;fill-rule:nonzero;stroke:black;stroke-width:15px;"/>
        <path d="M83.448,343.997C82.789,345.291 82.32,346.586 82.135,348.04C81.982,349.259 81.932,351.406 83.657,351.545" style="fill:none;fill-rule:nonzero;stroke:black;stroke-width:15px;"/>
        <path d="M339.839,351.545C341.564,351.405 341.514,349.258 341.36,348.041C341.176,346.586 340.706,345.291 340.048,343.998" style="fill:none;fill-rule:nonzero;stroke:black;stroke-width:15px;"/>
        <path d="M36.07,63.225L32.434,67.388" style="fill:none;fill-rule:nonzero;stroke:black;stroke-width:15px;"/>
        <path d="M391.063,67.388L384.781,113.7" style="fill:none;fill-rule:nonzero;stroke:black;stroke-width:15px;"/>
        <path d="M38.715,113.7L32.434,67.388" style="fill:none;fill-rule:nonzero;stroke:black;stroke-width:15px;"/>
        <path d="M47.442,124.553C48.938,125.1 50.417,125.367 52.011,125.375L178.812,125.403C181.691,126.02 184.952,132.429 184.982,134.985" style="fill:none;fill-rule:nonzero;stroke:black;stroke-width:15px;"/>
        <path d="M184.982,134.986L184.982,150.176" style="fill:none;fill-rule:nonzero;stroke:black;stroke-width:15px;"/>
        <path d="M113.983,518.33C113.94,498.196 113.268,478.113 111.966,458.02" style="fill:none;fill-rule:nonzero;stroke:black;stroke-width:15px;"/>
        <path d="M115.203,655.823C114.794,609.992 114.437,564.161 113.983,518.331" style="fill:none;fill-rule:nonzero;stroke:black;stroke-width:15px;"/>
        <path d="M109.688,445.281C111.264,447.849 111.77,455.34 111.965,458.02" style="fill:none;fill-rule:nonzero;stroke:black;stroke-width:15px;"/>
        <path d="M110.36,446.842L109.206,444.65" style="fill:none;fill-rule:nonzero;stroke:black;stroke-width:15px;"/>
        <path d="M308.505,660.718C308.379,659.089 308.308,657.46 308.291,655.824" style="fill:none;fill-rule:nonzero;stroke:black;stroke-width:15px;"/>
        <path d="M308.217,703.794L308.498,671.662" style="fill:none;fill-rule:nonzero;stroke:black;stroke-width:15px;"/>
        <path d="M308.501,660.718L308.127,703.794" style="fill:none;fill-rule:nonzero;stroke:black;stroke-width:15px;"/>
        <path d="M309.512,518.33C309.555,498.196 310.227,478.113 311.528,458.02" style="fill:none;fill-rule:nonzero;stroke:black;stroke-width:15px;"/>
        <path d="M308.292,655.823C308.7,609.992 309.058,564.161 309.511,518.331" style="fill:none;fill-rule:nonzero;stroke:black;stroke-width:15px;"/>
        <path d="M313.806,445.281C312.23,447.849 311.725,455.34 311.528,458.02" style="fill:none;fill-rule:nonzero;stroke:black;stroke-width:15px;"/>
        <path d="M313.134,446.842L314.289,444.65" style="fill:none;fill-rule:nonzero;stroke:black;stroke-width:15px;"/>
        <path d="M314.289,444.65C314.112,444.849 313.943,445.05 313.806,445.281" style="fill:none;fill-rule:nonzero;stroke:black;stroke-width:15px;"/>
        <path d="M306.34,705.481C306.792,705.509 306.967,705.71 306.935,706.163" style="fill:none;fill-rule:nonzero;stroke:black;stroke-width:15px;"/>
        <path d="M306.935,706.162C306.607,718.55 306.277,730.939 305.95,743.327" style="fill:none;fill-rule:nonzero;stroke:black;stroke-width:15px;"/>
        <path d="M305.95,743.327C306.151,743.331 306.351,743.334 306.552,743.337C306.652,743.338 306.753,743.339 306.853,743.34C306.953,743.34 307.131,743.534 307.154,743.337" style="fill:none;fill-rule:nonzero;stroke:black;stroke-width:15px;"/>
        <path d="M111.173,427.285C109.404,411.183 107.121,395.178 104.318,379.225" style="fill:none;fill-rule:nonzero;stroke:black;stroke-width:15px;"/>
        <path d="M305.95,743.335C306.011,745.053 304.694,746.508 302.98,746.62" style="fill:none;fill-rule:nonzero;stroke:black;stroke-width:15px;"/>
        <path d="M305.95,743.327L220.236,743.327" style="fill:none;fill-rule:nonzero;stroke:black;stroke-width:15px;"/>
        <path d="M220.237,743.327C219.223,743.328 218.209,743.33 217.195,743.331" style="fill:none;fill-rule:nonzero;stroke:black;stroke-width:15px;"/>
        <path d="M216.105,743.332L215.809,743.332" style="fill:none;fill-rule:nonzero;stroke:black;stroke-width:15px;"/>
        <path d="M215.809,743.332L215.47,743.332" style="fill:none;fill-rule:nonzero;stroke:black;stroke-width:15px;"/>
        <path d="M215.469,743.332L214.933,743.329" style="fill:none;fill-rule:nonzero;stroke:black;stroke-width:15px;"/>
        <path d="M211.748,743.325L117.547,743.325" style="fill:none;fill-rule:nonzero;stroke:black;stroke-width:15px;"/>
        <path d="M117.547,743.335C117.486,745.053 118.802,746.508 120.516,746.62" style="fill:none;fill-rule:nonzero;stroke:black;stroke-width:15px;"/>
        <path d="M117.546,743.325C117.345,743.328 117.143,743.333 116.942,743.336C116.84,743.337 116.74,743.338 116.639,743.339C116.538,743.34 116.405,743.512 116.337,743.337" style="fill:none;fill-rule:nonzero;stroke:black;stroke-width:15px;"/>
        <path d="M117.546,743.325C117.219,730.938 116.889,718.55 116.562,706.162" style="fill:none;fill-rule:nonzero;stroke:black;stroke-width:15px;"/>
        <path d="M116.514,706.163C116.132,706.17 115.751,706.201 115.368,706.174" style="fill:none;fill-rule:nonzero;stroke:black;stroke-width:15px;"/>
        <path d="M116.562,706.162C116.538,705.74 116.694,705.547 117.113,705.483" style="fill:none;fill-rule:nonzero;stroke:black;stroke-width:15px;"/>
        <path d="M38.878,38.902L38.621,38.902" style="fill:none;fill-rule:nonzero;stroke:black;stroke-width:15px;"/>
        <path d="M214.932,743.33C213.87,743.328 212.809,743.327 211.748,743.325" style="fill:none;fill-rule:nonzero;stroke:black;stroke-width:15px;"/>
        <path d="M216.693,743.332L216.105,743.332" style="fill:none;fill-rule:nonzero;stroke:black;stroke-width:15px;"/>
        <path d="M217.195,743.331C217.027,743.331 216.861,743.331 216.693,743.332" style="fill:none;fill-rule:nonzero;stroke:black;stroke-width:15px;"/>
        <path d="M117.984,703.794C117.999,704.356 118.012,704.919 118.025,705.481" style="fill:none;fill-rule:nonzero;stroke:black;stroke-width:15px;"/>
        <path d="M115.063,518.331C114.829,487.918 114.457,457.612 111.172,427.286" style="fill:none;fill-rule:nonzero;stroke:black;stroke-width:15px;"/>
        <path d="M115.063,518.331C115.539,580.151 116.015,641.973 116.491,703.794" style="fill:none;fill-rule:nonzero;stroke:black;stroke-width:15px;"/>
        <path d="M364.929,258.296L58.567,258.296" style="fill:none;fill-rule:nonzero;stroke:black;stroke-width:15px;"/>
        <path d="M312.322,427.285C314.09,411.183 316.373,395.178 319.177,379.225" style="fill:none;fill-rule:nonzero;stroke:black;stroke-width:15px;"/>
        <path d="M308.431,518.331C308.665,487.918 309.038,457.612 312.322,427.286" style="fill:none;fill-rule:nonzero;stroke:black;stroke-width:15px;"/>
        <path d="M308.431,518.331C307.956,580.151 307.48,641.973 307.004,703.794" style="fill:none;fill-rule:nonzero;stroke:black;stroke-width:15px;"/>
        <path d="M178.812,125.402L244.677,125.402" style="fill:none;fill-rule:nonzero;stroke:black;stroke-width:15px;"/>
        <path d="M178.715,184.953L244.806,184.953" style="fill:none;fill-rule:nonzero;stroke:black;stroke-width:15px;"/>
        <path d="M230.17,642.942C229.39,640.374 227.787,638.662 225.729,637.711C226.956,634.995 227.098,632.271 226.311,629.675C225.129,625.78 221.982,623.918 218.244,623.779C214.825,623.651 212.833,625.582 212.373,627.455C211.914,629.328 213.325,628.635 213.325,628.635C218.211,626.553 218.768,631.444 218.768,631.444C219.949,642.369 195.058,654.438 195.058,654.438L195.058,654.576C202.273,654.021 214.768,649.166 220.703,644.067C221.079,643.745 221.432,643.42 221.771,643.094C222.224,643.945 222.325,644.781 222.325,644.781C223.553,656.144 197.667,668.696 197.667,668.696L197.667,668.84C205.17,668.263 218.164,663.214 224.337,657.911C230.011,653.036 231.636,647.776 230.17,642.942Z" style="fill:none;fill-rule:nonzero;stroke:black;stroke-width:15px;"/>
    </g>
</svg>
