<?xml version="1.0" standalone="no"?>
<!DOCTYPE svg PUBLIC "-//W3C//DTD SVG 20010904//EN"
 "http://www.w3.org/TR/2001/REC-SVG-20010904/DTD/svg10.dtd">
<svg version="1.0" xmlns="http://www.w3.org/2000/svg"
 width="700.000000pt" height="700.000000pt" viewBox="0 0 700.000000 700.000000"
 preserveAspectRatio="xMidYMid meet">
<metadata>
Created by potrace 1.14, written by Peter Selinger 2001-2017
</metadata>
<g transform="translate(0.000000,700.000000) scale(0.100000,-0.100000)"
fill="#000000" stroke="none">
<path d="M4280 6654 c-367 -66 -664 -294 -822 -632 -63 -134 -90 -253 -94
-417 -3 -155 9 -245 51 -370 56 -169 145 -309 279 -440 152 -150 317 -239 538
-292 89 -21 332 -24 423 -4 213 45 402 143 550 288 95 92 127 132 203 258 37
61 99 217 108 275 3 14 7 31 9 38 10 28 19 151 19 242 -4 479 -360 923 -829
1034 -39 10 -81 20 -95 23 -53 12 -268 10 -340 -3z m350 -488 c206 -61 367
-233 424 -452 24 -90 16 -250 -16 -336 -100 -269 -336 -430 -617 -420 -266 9
-512 220 -570 487 -41 185 3 363 125 516 104 131 252 211 414 226 36 3 66 6
68 8 5 4 129 -16 172 -29z"/>
<path d="M1455 4930 c-6 -11 3 -3658 9 -3700 21 -142 38 -214 71 -308 118
-330 343 -496 770 -567 121 -21 702 -31 785 -14 151 31 279 141 333 287 18 49
21 81 22 230 1 94 -1 172 -4 173 -3 0 -202 2 -441 3 -315 2 -447 6 -480 15
-148 42 -218 129 -246 305 -3 22 -6 438 -7 925 l-1 886 524 1 c289 1 530 2
535 3 6 1 9 106 8 298 -1 164 -2 321 -3 348 l0 51 -530 -1 c-346 0 -531 3
-533 10 -1 5 -2 245 -2 533 1 359 -2 522 -9 522 -111 4 -799 4 -801 0z"/>
</g>
</svg>
