<?xml version="1.0" encoding="utf-8"?>
<!-- Generator: Adobe Illustrator 28.1.0, SVG Export Plug-In . SVG Version: 6.00 Build 0)  -->
<svg version="1.1" id="Layer_1" xmlns="http://www.w3.org/2000/svg" xmlns:xlink="http://www.w3.org/1999/xlink" x="0px" y="0px"
	 viewBox="0 0 60.902401 121.594574" style="enable-background:new 0 0 60.902401 121.594574;" xml:space="preserve">
<g id="tempest_air_pressure_and_weather">
	<path class="st0" d="M25.3127708,30.4606514l0.2727585-0.1699657c0.2991734-0.3507576,0.7332325-0.867918,0.7332325-1.4051418
		h-0.0000191v-4.0075817v0.0000687v-2.4385204l-0.0000572-0.0000095c-0.0047779-0.4103718-0.5282459-1.4391556-0.9903831-1.5383034
		L4.9732928,20.896801c-0.2558084-0.0013409-0.4584174-0.042408-0.7334242-0.132021
		c-1.1939783-0.3890667-1.4009426-1.7421646-1.4009426-1.7421646l-1.0083443-7.4343691l-0.310887-2.2925539
		C1.5065125,9.1990271,1.5000175,9.1023617,1.5000175,9.0047283L1.5,9.004694c0-0.8652468,0.5152495-1.6473999,1.3101945-1.989182
		l0.0350749-0.0151119C10.0824757,3.8930435,17.3385944,2.1069539,25.1913548,1.5l0.010952,0.0000932h4.7618446h0.9741001h4.7618446
		L35.7110481,1.5c7.8527603,0.6069539,15.1088791,2.3930435,22.3460884,5.5004001l0.0350761,0.0151119
		c0.7949448,0.3417821,1.3101883,1.1239352,1.3101883,1.989182l-0.0000114,0.0000343
		c0,0.0976334-0.0065002,0.1942987-0.0196838,0.2909651l-0.3108788,2.2925529l-1.0083504,7.4343691v0.0000229
		c-0.1077461,0.795517-0.6470718,1.4660892-1.4009399,1.7421417c-0.2401466,0.0878849-0.4776154,0.1306801-0.7334251,0.132021
		l-20.355011,0.0043964c-0.4621353,0.0991478-0.9856071,1.1279316-0.9903793,1.5383034l-0.000061,0.0000095v2.4385204v-0.0000687
		v4.0075817h-0.0000191l0,0l0,0c0,0.5372238,0.4015808,1.0543842,0.7007523,1.4051418l0.2727585,0.1699657l0.032486-0.0000267
		l17.9033165,0.0105057c1.0593452-0.0051517,2.7693977,0.0580826,3.7962685,0.4961452l0.0375633,0.0172939
		c0.3729248,0.1761417,0.6098175,0.5335979,0.6260567,0.9458675l0.0199432,0.833456
		c-1.0824661,3.1408005-2.1141129,6.2966805-3.0959053,9.4703407c0,0-7.9412842,24.9211998-8.5721207,32.0611153
		c-0.2090034,3.2254333-0.3169441,6.4493332-0.3238258,9.6814499l-0.0000687,0.000061
		c-0.0727882,7.356987-0.1301003,14.7141724-0.1958275,22.0713577l-0.1465378,14.0463562H31.6003075h-2.2982101H15.2639055
		l-0.1465406-14.0463562c-0.0657263-7.3571854-0.1230364-14.7143707-0.1958284-22.0713577l-0.0000706-0.000061
		c-0.0068789-3.2321167-0.1148186-6.4560165-0.323823-9.6814499c-0.6308384-7.1399155-8.5721207-32.0611153-8.5721207-32.0611153
		c-0.9817877-3.1736603-2.0134354-6.3295403-3.095906-9.4703407l0.0199454-0.833456
		c0.0162373-0.4122696,0.2531326-0.7697258,0.6260536-0.9458675l0.0375648-0.0172939
		c1.0268724-0.4380627,2.7369249-0.501297,3.796272-0.4961452l17.9033146-0.0105057L25.3127708,30.4606514z"/>
</g>
</svg>
